<svg xmlns="http://www.w3.org/2000/svg" version="1.1" xmlns:xlink="http://www.w3.org/1999/xlink" xmlns:svgjs="http://svgjs.dev/svgjs" width="2000" height="1918" viewBox="0 0 2000 1918"><g transform="matrix(1,0,0,1,-2.625850340136253,-2.7137659574464124)"><svg viewBox="0 0 147 141" data-background-color="#ffffff" preserveAspectRatio="xMidYMid meet" height="1918" width="2000" xmlns="http://www.w3.org/2000/svg" xmlns:xlink="http://www.w3.org/1999/xlink"><g id="tight-bounds" transform="matrix(1,0,0,1,0.19300000000001205,0.19949999999997203)"><svg viewBox="0 0 146.6139151304348 140.60052000000002" height="140.60052000000002" width="146.6139151304348"><g><svg viewBox="0 0 146.6139151304348 140.60052000000002" height="140.60052000000002" width="146.6139151304348"><g><svg viewBox="0 0 146.6139151304348 140.60052000000002" height="140.60052000000002" width="146.6139151304348"><g><path d="M0 140.601v-140.601h146.614v140.601z" fill="#000000" stroke="transparent" stroke-width="0" rx="0%" data-fill-palette-color="tertiary"></path><path d="M3.283 137.317v-134.034h140.048v134.034z" fill="#ffffff" stroke="transparent" stroke-width="0" rx="0%" data-fill-palette-color="quaternary"></path><path d="M9.85 130.751v-120.901h126.914v120.901z" fill="#000000" stroke="transparent" stroke-width="0" data-fill-palette-color="tertiary"></path></g><g transform="matrix(1,0,0,1,19.69974,19.69974)" id="textblocktransform"><svg viewBox="0 0 107.21443513043481 101.20104000000002" height="101.20104000000002" width="107.21443513043481" id="textblock"><g><svg viewBox="0 0 107.21443513043481 101.20104000000002" height="101.20104000000002" width="107.21443513043481"><g transform="matrix(1,0,0,1,0,0)"><svg width="107.21443513043481" viewBox="3.65 -34.5 36.550000000000004 34.5" height="101.20104000000002" data-palette-color="#ffffff"><path d="M32-34.5L36.95-34.5Q38.75-34.5 38.75-32.65L38.75-32.65 40.2 0 35.8 0 34.55-30.85 33.5-30.85 25.8-5.4Q25.4-3.9 23.9-3.9L23.9-3.9 19.95-3.9Q18.4-3.9 17.95-5.4L17.95-5.4 10.25-30.85 9.25-30.85 8.05 0 3.65 0 5-32.65Q5.1-34.5 6.85-34.5L6.85-34.5 11.85-34.5Q13.25-34.5 13.7-33L13.7-33 20.15-11.95Q20.55-10.8 20.83-9.65 21.1-8.5 21.45-7.3L21.45-7.3 22.35-7.3Q22.7-8.5 23-9.65 23.3-10.8 23.65-12.05L23.65-12.05 30.1-33Q30.5-34.5 32-34.5L32-34.5Z" opacity="1" transform="matrix(1,0,0,1,0,0)" fill="#ffffff" class="wordmark-text-0" data-fill-palette-color="quaternary" id="text-0"></path></svg></g></svg></g></svg></g></svg></g><g></g></svg></g><defs></defs></svg><rect width="146.6139151304348" height="140.60052000000002" fill="none" stroke="none" visibility="hidden"></rect></g></svg></g></svg>